<svg width="88" height="93" viewBox="0 0 88 93" fill="none" xmlns="http://www.w3.org/2000/svg">
<path fill-rule="evenodd" clip-rule="evenodd" d="M57.505 34.6391H77.836C81.413 34.6391 81.322 41.7461 77.872 41.7461H57.505L57.513 48.5811H77.909C82.121 48.5811 81.938 58.5491 77.837 58.5491H57.506V65.3701L79.298 65.3841C87.441 65.3841 89.579 50.7261 84.913 45.5741C89.08 39.9941 87.422 27.8031 78.525 27.8031H57.505V34.6391Z" fill="black" stroke="black" stroke-miterlimit="10"/>
<path fill-rule="evenodd" clip-rule="evenodd" d="M1.18501 50.2091C1.18501 47.8391 1.18501 45.4691 1.18501 43.0991C3.11901 24.6451 14.234 10.8191 29.001 4.61712C36.365 1.52212 49.765 0.176116 58.979 2.31512C65.245 3.77112 71.165 6.74314 75.92 10.2621C77.114 11.1481 79.741 13.3391 80.312 14.2371L75.71 18.4211C70.557 13.2551 64.134 9.3601 55.214 7.9641C55.214 33.8281 55.214 59.6911 55.214 85.5551C60.982 84.7221 65.185 83.0112 69.81 80.0142C70.905 79.3042 75.502 75.3082 75.502 75.3082L77.592 77.6091L79.684 79.9111C79.684 79.9111 70.937 88.8602 58.351 91.2042C48.795 92.9832 36.72 91.9801 28.583 88.4851C13.589 82.0441 3.48001 68.7741 1.18501 50.2091Z" fill="black" stroke="black" stroke-miterlimit="10"/>
<path fill-rule="evenodd" clip-rule="evenodd" d="M50 7.03136C50 7.03136 50 14.7594 50 17.079C50 39.9278 50 65.0525 50 86.9919C37.1587 87.2266 27.7296 82.3333 20.9837 75.5167C14.3062 68.7682 9 59.2478 9 47.0431C9 25.625 25.2102 8.57676 45.1653 7.09232C47.3328 6.92975 50 7.03136 50 7.03136ZM47.6887 41.7282C47.2484 32.2648 40.4673 27.5778 32.9695 27.0657C27.7175 26.706 25.7088 28.1325 22.0353 30.6787C22.0353 29.685 22.0353 28.6954 22.0353 27.7027C19.7934 27.7027 17.5494 27.7027 15.3075 27.7027C15.3075 40.6654 15.3075 52.8376 15.3075 65.8013H22.0363C22.0363 65.8013 22.0816 49.3089 22.0353 42.1529C21.9871 34.9207 32.8629 31.1715 38.1389 36.5718C39.5886 38.0582 40.8966 40.7884 40.8966 45.1045V65.8013C43.0691 65.8013 45.5151 65.8013 47.6887 65.8013V41.7282Z" fill="#CAAF7E" stroke="black" stroke-miterlimit="10"/>
</svg>
